# xmcd
#
# Track frame offsets: 
#        150
#        20544
#        38604
#        57507
#        82575
#        101575
#        118987
#        138858
#        169011
#        192059
#        210809
#        235090
#
# Disc length: 3429 seconds
#
# Revision: 0
# Processed by: cddbd v1.5.2PL0 Copyright (c) Steve Scherf et al.
# Submitted via: ExactAudioCopy v1.3
#
DISCID=8d0d630c
DTITLE=Dennis Herrera Blues Band - Livin' Life Not Worryin'
DYEAR=2015
DGENRE=West Coast Blues
TTITLE0=All This Fun's For Free
TTITLE1=Can't Get Enough
TTITLE2=Damn Uncle Sam!
TTITLE3=Love You Good
TTITLE4=Livin' Life Not Worryin'
TTITLE5=Slim Baby Slim
TTITLE6=Mean Ole Texas Shuffle
TTITLE7=Sun Is Shining
TTITLE8=Talkin' At My Back Door
TTITLE9=Somethin' I Read
TTITLE10=This Ain't Nothin' New
TTITLE11=Hooker Heater
EXTD=
EXTT0=
EXTT1=
EXTT2=
EXTT3=
EXTT4=
EXTT5=
EXTT6=
EXTT7=
EXTT8=
EXTT9=
EXTT10=
EXTT11=
PLAYORDER=
